<?xml version="1.0" encoding="UTF-8"?><svg id="Layer_2" xmlns="http://www.w3.org/2000/svg" xmlns:xlink="http://www.w3.org/1999/xlink" viewBox="0 0 972.75 1410.73"><defs><style>.cls-1{fill:url(#New_Gradient_blue);}.cls-1,.cls-2,.cls-3,.cls-4{fill-rule:evenodd;}.cls-2{fill:url(#New_Gradient_orange-2);}.cls-3{fill:url(#New_Gradient_blue-2);}.cls-4{fill:url(#New_Gradient_orange);}</style><radialGradient id="New_Gradient_orange" cx="315.99" cy="1199.07" fx="315.99" fy="1199.07" r="662.03" gradientUnits="userSpaceOnUse"><stop offset="0" stop-color="#f8ff2a"/><stop offset=".59" stop-color="#e55500"/><stop offset="1" stop-color="#bf5500"/></radialGradient><radialGradient id="New_Gradient_orange-2" cx="168.98" cy="506.01" fx="168.98" fy="506.01" r="1221.84" xlink:href="#New_Gradient_orange"/><radialGradient id="New_Gradient_blue" cx="1057.07" cy="929.05" fx="1057.07" fy="929.05" r="596.84" gradientUnits="userSpaceOnUse"><stop offset="0" stop-color="#00c2f0"/><stop offset="1" stop-color="#1a3b6e"/></radialGradient><radialGradient id="New_Gradient_blue-2" cx="448.01" cy="947.05" fx="448.01" fy="947.05" r="589.16" xlink:href="#New_Gradient_blue"/></defs><g id="Layer_1-2"><g><path class="cls-4" d="m458.09,0C564.85,390.36-39.7,601.66,6.59,1003.64c21.86,191.96,127.38,293.74,284.3,364.57,72.01,32.22,199.39,42.52,199.39,42.52-95.24-64.42-262.44-206.11-259.85-351.69,5.15-273.17,280.42-413.59,301-621,39.87,284.75-304.86,407.11-225.11,684.14-10.29-143.02,186.5-316.95,255.97-429.04C746.24,398.1,725.67,215.15,458.09,0h0Z"/><path class="cls-2" d="m458.09,0C564.85,390.36-33.28,578.47,1.46,994.58c23.13,274.44,262.39,409.72,488.82,416.15-307.46-115.94-418.08-341.4-247.01-601.64,90.04-136.58,235.4-224.18,288.16-371.05,30.87,224.16-174.94,347.84-225.11,525.64,65.59-133.97,158.19-172.66,232.8-305.35,128.65-230.6,120.96-461.21-73.28-651.89-2.59-2.59-5.15-3.87-7.74-6.44h0Z"/><path class="cls-1" d="m725.67,320.8c1.27,2.57,2.55,5.15,2.55,7.71,101.65,246.08,113.21,488.31,56.62,642.9-47.61,126.27-110.67,159.77-172.39,146.89-79.76-16.75-132.47-100.51-59.18-234.51,37.32-66.96,81.02-144.3,114.48-229.31-75.89,122.38-191.65,229.31-252.1,341.42-169.79,310.49,317.71,608.1,515.81,158.46,91.31-206.12,34.74-523.07-205.81-833.56h0Z"/><path class="cls-3" d="m725.67,320.8c1.27,2.57,2.55,5.15,2.55,7.71,101.65,246.08,113.21,488.31,56.62,642.9-47.61,126.27-110.67,159.77-172.39,146.89-79.76-16.75-132.47-100.51-59.18-234.51,37.32-66.96,81.02-144.3,114.48-230.61-75.89,123.68-191.65,230.61-252.1,342.72-63.05,113.34-36.01,225.46,30.87,298.88,115.76,72.15,288.11,55.4,405.19-155.9,105.47-189.37,77.16-498.58-126.05-818.08h0Z"/></g></g></svg>